<svg xmlns="http://www.w3.org/2000/svg" viewBox="0 0 96 96" width="96" height="96" role="img" aria-label="QQ Agent Plus">
  <defs>
    <linearGradient id="bg" x1="0" y1="0" x2="1" y2="1">
      <stop offset="0" stop-color="#5bb8ff"/>
      <stop offset="1" stop-color="#0f6cbd"/>
    </linearGradient>
  </defs>
  <rect width="96" height="96" rx="22" fill="url(#bg)"/>
  <g fill="#ffffff">
    <ellipse cx="45" cy="60" rx="24" ry="14.5"/>
    <path d="M64 55c6-2 10-6 12-11 1 8-2 15-9 19z"/>
    <path d="M69 63c5 0 9-2 12-5-2 7-7 11-14 11z"/>
  </g>
  <circle cx="33" cy="57" r="2.8" fill="#0f3f63"/>
  <path d="M41 43c1-6 5-10 10-12-2 4-2 7-1 10" fill="#ffffff" opacity="0.92"/>
  <circle cx="59" cy="30" r="3.4" fill="#ffffff" opacity="0.9"/>
  <circle cx="70" cy="24" r="2.1" fill="#ffffff" opacity="0.7"/>
</svg>
